<?xml version="1.0" standalone="no"?>
<!DOCTYPE svg PUBLIC "-//W3C//DTD SVG 20010904//EN"
 "http://www.w3.org/TR/2001/REC-SVG-20010904/DTD/svg10.dtd">
<svg version="1.0" xmlns="http://www.w3.org/2000/svg"
 width="362.000000pt" height="362.000000pt" viewBox="0 0 362.000000 362.000000"
 preserveAspectRatio="xMidYMid meet">
<metadata>
Created by potrace 1.11, written by Peter Selinger 2001-2013
</metadata>
<g transform="translate(0.000000,362.000000) scale(0.100000,-0.100000)"
fill="#000000" stroke="none">
<path d="M867 3254 c-1 -1 -40 -4 -87 -5 -283 -7 -517 -172 -645 -454 -102
-222 -143 -543 -94 -734 38 -149 137 -323 286 -502 122 -148 349 -367 493
-479 25 -19 51 -41 59 -48 8 -8 91 -71 185 -141 196 -146 512 -357 711 -474
11 -7 23 -16 26 -21 4 -5 22 3 40 16 19 14 70 47 114 73 44 26 163 103 265
170 586 388 1003 766 1228 1110 39 60 122 249 135 309 17 76 20 258 6 346 -5
30 -11 71 -14 90 -20 125 -87 301 -155 403 -152 232 -357 340 -639 338 -345
-2 -663 -163 -909 -459 -28 -35 -52 -68 -52 -75 0 -13 -30 18 -74 77 -16 21
-58 67 -94 103 -164 162 -353 272 -552 322 -77 18 -226 41 -233 35z"/>
</g>
</svg>
